<?xml version="1.0" encoding="UTF-8" standalone="no"?>
<!-- Created with Inkscape (http://www.inkscape.org/) -->

<svg
   version="1.1"
   id="svg1"
   width="272.54785"
   height="820.57806"
   viewBox="0 0 272.54785 820.57808"
   sodipodi:docname="human.svg"
   inkscape:version="1.4.2 (ebf0e940d0, 2025-05-08)"
   xmlns:inkscape="http://www.inkscape.org/namespaces/inkscape"
   xmlns:sodipodi="http://sodipodi.sourceforge.net/DTD/sodipodi-0.dtd"
   xmlns="http://www.w3.org/2000/svg"
   xmlns:svg="http://www.w3.org/2000/svg">
  <defs
     id="defs1" />
  <sodipodi:namedview
     id="namedview1"
     pagecolor="#ffffff"
     bordercolor="#000000"
     borderopacity="0.25"
     inkscape:showpageshadow="2"
     inkscape:pageopacity="0.0"
     inkscape:pagecheckerboard="0"
     inkscape:deskcolor="#d1d1d1"
     showgrid="false"
     inkscape:zoom="0.51385097"
     inkscape:cx="248.12642"
     inkscape:cy="196.55504"
     inkscape:window-width="1920"
     inkscape:window-height="1131"
     inkscape:window-x="0"
     inkscape:window-y="0"
     inkscape:window-maximized="1"
     inkscape:current-layer="g1" />
  <g
     inkscape:groupmode="layer"
     inkscape:label="Image"
     id="g1"
     transform="translate(-1040.9576,-1654.5618)">
    <path
       style="fill:#000000"
       d="m 1112,2471.2799 c -4.0768,-2.5069 -9.1778,-4.5325 -11.4869,-4.5614 -9.1759,-0.1147 -14.2034,-9.0069 -8.5923,-15.1973 5.106,-5.6332 15.6336,-18.9732 19.8957,-25.2108 11.0893,-16.2294 13.0798,-37.2051 5.5949,-58.9601 -2.2675,-6.5906 -5.3063,-18.8906 -6.7529,-27.3333 -1.4466,-8.4427 -3.2365,-17.4464 -3.9776,-20.0083 -1.8438,-6.3732 -1.6132,-53.8442 0.2979,-61.3421 3.4993,-13.7285 1.6919,-30.522 -6.9288,-64.3776 -2.2003,-8.641 -5.0103,-25.141 -6.2444,-36.6667 -1.9464,-18.1774 -2.0431,-24.7563 -0.7293,-49.6224 2.0235,-38.3007 4.6488,-57.1068 10.9816,-78.6666 3.5741,-12.1678 5.287,-20.5921 5.2867,-26 -3e-4,-4.4 0.9282,-13.7 2.0633,-20.6667 2.4138,-14.815 1.3019,-24.5483 -4.1697,-36.4999 -3.0392,-6.6385 -5.798,-22.6346 -5.8812,-34.1001 -0.041,-5.6776 -2.1906,-1.1293 -3.8001,8.0412 -0.847,4.826 -3.6893,15.1958 -6.3162,23.0439 -4.4,13.1453 -4.6632,14.7961 -3.3418,20.9577 3.4367,16.0246 1.2037,38.0935 -5.9249,58.5572 -3.3705,9.6755 -3.4566,10.6922 -2.6554,31.3334 0.4555,11.7333 1.3653,22.5333 2.0219,24 1.9828,4.4289 4.3095,20.5451 4.9627,34.3747 0.5103,10.8049 0.2224,13.642 -1.679,16.5439 l -2.295,3.5026 -2.4683,-3.2106 c -1.3575,-1.7659 -2.5436,-5.6107 -2.6357,-8.544 l -0.1675,-5.3333 -1.3876,5.2522 c -0.993,3.7587 -0.9328,8.2231 0.2119,15.7005 2.4725,16.1516 -2.0818,25.6411 -7.3846,15.3866 -1.2308,-2.38 -5.675,-7.93 -9.876,-12.3333 -4.2011,-4.4033 -9.5095,-11.5405 -11.7965,-15.8604 -3.6256,-6.8482 -4.1582,-9.1825 -4.1582,-18.2228 0,-7.4742 0.7594,-12.14 2.7204,-16.715 3.1832,-7.4259 5.9947,-37.6589 4.713,-50.6796 -0.4406,-4.4762 -2.6785,-15.5762 -4.9731,-24.6667 -3.6893,-14.6157 -4.1718,-18.6881 -4.1694,-35.1948 0,-17.0228 0.3163,-19.4828 3.5632,-27.9335 5.0198,-13.0648 9.9825,-44.0078 11.4513,-71.3999 1.7573,-32.7731 2.5502,-38.5314 6.1831,-44.9018 3.8513,-6.7537 11.4471,-13.2408 17.8089,-15.2098 2.5864,-0.8005 9.8026,-3.7477 16.0359,-6.5494 18.7548,-8.4297 33.726,-14.3062 38.6695,-15.1785 2.5826,-0.4557 6.2434,-2.4915 8.1911,-4.5551 3.03,-3.2103 3.6566,-5.3512 4.4882,-15.3349 0.7983,-9.5828 0.6372,-11.6038 -0.9244,-11.6038 -1.0401,0 -2.5918,0.7007 -3.4482,1.5572 -0.8565,0.8564 -3.8265,2.3433 -6.6,3.3043 -4.9979,1.7316 -5.0806,1.7028 -9.2748,-3.2239 -5.3002,-6.2258 -7.6957,-14.4227 -6.6919,-22.8981 0.7061,-5.9617 0.4737,-6.7278 -2.6647,-8.7841 -3.3992,-2.2273 -3.428,-2.3891 -2.5333,-14.2405 0.723,-9.5774 0.4604,-13.1515 -1.3059,-17.7765 -2.1111,-5.5279 -2.0842,-6.1979 0.5972,-14.8636 4.8432,-15.6526 7.323,-18.7433 21.4408,-26.7241 12.5149,-7.0747 12.688,-7.126 23.9978,-7.1221 12.8924,0 33.19,3.8837 39.8305,7.6124 3.0584,1.7173 5.7997,5.1873 8.8158,11.159 8.3521,16.5365 10.5877,29.1821 8.0077,45.2951 -2.1112,13.1857 -5.3849,20.5433 -12.3755,27.8137 -5.3878,5.6034 -5.5528,6.0404 -5.5386,14.6667 0.01,4.8901 0.3842,11.1265 0.8359,13.8587 0.7593,4.5933 1.3859,5.1772 8.3186,7.7524 4.1237,1.5318 11.1394,5.1464 15.5905,8.0325 4.4511,2.8862 8.7007,5.2476 9.4435,5.2476 0.7428,0 3.2342,2.3439 5.5365,5.2088 4.1858,5.2086 7.2466,6.7167 22.927,11.2967 8.7233,2.5478 29.2422,16.5182 35.2124,23.9745 l 4.121,5.1467 -0.345,19.5199 c -0.4558,25.7868 1.7747,68.5325 4.3583,83.5228 1.1373,6.5985 3.631,17.6972 5.5415,24.6639 4.9344,17.9926 4.7629,21.1863 -3.6508,68 -0.5931,3.3 -1.0878,15.9 -1.0994,28 -0.016,17.3332 0.4414,23.1313 2.1586,27.3333 2.4997,6.1169 2.7786,15.9797 0.8257,29.193 -1.167,7.896 -1.9064,9.5703 -5.2405,11.8667 -2.135,1.4705 -8.2033,7.1588 -13.4851,12.6406 -6.5742,6.8232 -10.2637,9.7136 -11.6969,9.1636 -4.3462,-1.6678 -4.2512,-3.2406 1.9215,-31.8124 0.9692,-4.4865 0.7049,-5.2334 -2.8314,-8 -6.5866,-5.153 -9.9972,-23.582 -5.8489,-31.604 2.3524,-4.549 3.1312,-38.8804 1.0032,-44.2181 -0.7537,-1.8905 -2.1199,-10.4526 -3.0361,-19.027 -1.3441,-12.5805 -1.335,-18.0939 0.047,-28.5627 1.6674,-12.6272 1.6217,-13.2618 -1.7139,-23.8077 -3.6031,-11.3915 -6.8909,-27.7315 -8.2831,-41.1653 -0.456,-4.4 -1.7224,-11.2274 -2.8144,-15.1721 -1.7849,-6.4484 -2.1554,-6.9193 -3.6716,-4.6667 -0.9275,1.378 -5.0959,11.9648 -9.2631,23.5262 l -7.5768,21.0207 1.2074,28.9962 c 1.1952,28.7042 1.2497,29.0832 5.4113,37.6459 4.2436,8.7315 5.7418,15.0004 10.8298,45.3165 6.8035,40.5376 10.1324,91.7886 8.578,132.0652 -1.7058,44.1984 -1.5876,46.3779 3.0467,56.1865 5.5831,11.8165 8.2942,21.6446 8.2942,30.0667 0,3.9423 0.6782,11.2743 1.5071,16.2932 1.2106,7.3307 1.0777,13.1502 -0.6759,29.5902 -1.2006,11.2556 -2.1694,29.1648 -2.153,39.7981 l 0.03,19.3334 5.1194,11.499 c 6.3384,14.2372 18.4237,33.1055 26.5783,41.4956 l 6.1503,6.3281 -1.6935,6.3316 c -0.9314,3.4824 -2.7065,6.8922 -3.9446,7.5774 -1.2382,0.6852 -3.7512,2.8252 -5.5845,4.7555 -4.6318,4.8769 -7.4182,5.6275 -13.7971,3.7163 -7.6101,-2.28 -16.2503,-11.1985 -25.5472,-26.3702 -11.3445,-18.513 -16.3577,-29.9047 -18.7764,-42.6667 -1.2203,-6.4386 -4.1245,-15.3642 -6.7244,-20.6666 -2.635,-5.3739 -6.2991,-16.6866 -8.6372,-26.6667 -2.2334,-9.5333 -5.769,-22.7333 -7.8569,-29.3333 -4.9684,-15.7055 -5.4628,-18.7515 -5.8541,-36.0664 -0.3595,-15.9062 -5.7268,-44.2289 -12.7475,-67.267 -2.1231,-6.9666 -4.5169,-15.3666 -5.3196,-18.6666 -0.8028,-3.3 -3.5461,-13.8 -6.0963,-23.3334 -2.5502,-9.5333 -5.0184,-22.4333 -5.4848,-28.6666 -0.8349,-11.1581 -2.9499,-19.1145 -3.1899,-12 -0.2152,6.3819 -2.4201,23.446 -5.2546,40.6666 -4.2926,26.0796 -5.5274,54.2995 -3.092,70.6667 3.0344,20.3936 1.5803,50.6702 -3.6101,75.1671 -7.8955,37.2644 -10.0607,58.604 -6.8129,67.1463 1.8472,4.8586 -1.7135,28.1899 -6.1575,40.3468 -1.8778,5.1369 -4.4915,14.3497 -5.8082,20.4728 -2.6666,12.4004 -4.5176,15.1274 -13.2333,19.496 -10.2343,5.1297 -14.3038,5.1269 -22.6667,-0.016 z m 171.5497,-364.9466 c -0.3699,-0.9167 -0.6725,-0.1667 -0.6725,1.6666 0,1.8334 0.3026,2.5834 0.6725,1.6667 0.3699,-0.9167 0.3699,-2.4167 0,-3.3333 z"
       id="path2"
       sodipodi:nodetypes="sssssssssssssssssssssssscsscssssssssscsssssssssssssssssscsssscssssssscsssscsssssssssssssssscssssssssscsscssssssssssssssssssssssssssss" />
  </g>
</svg>
