<?xml version="1.0" encoding="UTF-8" standalone="no"?>
<!-- Created with Inkscape (http://www.inkscape.org/) -->

<svg
   version="1.1"
   id="svg1"
   width="1024"
   height="856.69281"
   viewBox="0 0 1024 856.69281"
   sodipodi:docname="cat.svg"
   inkscape:version="1.4.2 (ebf0e940d0, 2025-05-08)"
   xmlns:inkscape="http://www.inkscape.org/namespaces/inkscape"
   xmlns:sodipodi="http://sodipodi.sourceforge.net/DTD/sodipodi-0.dtd"
   xmlns="http://www.w3.org/2000/svg"
   xmlns:svg="http://www.w3.org/2000/svg">
  <defs
     id="defs1" />
  <sodipodi:namedview
     id="namedview1"
     pagecolor="#ffffff"
     bordercolor="#000000"
     borderopacity="0.25"
     inkscape:showpageshadow="2"
     inkscape:pageopacity="0.0"
     inkscape:pagecheckerboard="0"
     inkscape:deskcolor="#d1d1d1"
     inkscape:zoom="0.31808277"
     inkscape:cx="105.3185"
     inkscape:cy="602.04455"
     inkscape:window-width="1000"
     inkscape:window-height="950"
     inkscape:window-x="0"
     inkscape:window-y="0"
     inkscape:window-maximized="0"
     inkscape:current-layer="g1" />
  <g
     inkscape:groupmode="layer"
     inkscape:label="Image"
     id="g1"
     transform="translate(-13.609683,-92.536121)">
    <path
       style="fill:#000000;stroke-width:1.58601"
       d="m 254.99071,923.53126 c -6.79812,-3.08645 -11.60374,-9.69199 -11.60374,-15.94987 0,-5.42932 3.9292,-11.32161 14.27775,-21.41111 5.3682,-5.23383 11.04939,-12.01401 12.62483,-15.06707 6.69012,-12.96488 10.36004,-51.16569 9.11709,-94.90156 -0.97884,-34.44258 -3.54899,-48.77385 -12.14813,-67.73887 -4.63289,-10.21758 -20.47425,-35.61642 -22.20678,-35.6046 -0.47946,0.004 -2.17016,3.1635 -3.7571,7.02273 -9.98305,24.27751 -52.8323,41.40338 -117.65125,47.02253 -53.205264,4.61233 -51.459491,4.1284 -68.198325,18.90515 -17.204059,15.18744 -26.112658,17.74655 -34.071658,9.78757 -11.059733,-11.05974 -10.148611,-34.92785 1.745773,-45.73231 3.931825,-3.57153 36.700899,-19.35059 98.93821,-47.641 20.06299,-9.11976 37.7122,-17.69308 39.22045,-19.05182 4.79576,-4.32033 9.15436,-18.75662 9.13307,-30.25008 -0.0214,-11.60396 -11.03376,-72.6565 -14.6778,-81.37439 -3.59338,-8.59661 -5.45625,-9.36969 -15.43664,-6.40609 -5.18213,1.5388 -14.19534,2.56853 -22.2041,2.53675 -15.54081,-0.0618 -22.909357,-3.02896 -33.283502,-13.40311 -8.226547,-8.22653 -9.118495,-13.78911 -4.850978,-30.25251 1.867535,-7.20466 4.459397,-21.37132 5.759699,-31.48147 3.992848,-31.04553 10.860534,-50.95063 22.696861,-65.78387 2.70593,-3.3911 4.91989,-6.46726 4.91989,-6.8359 0,-0.36866 -3.90854,-10.20986 -8.68565,-21.86935 -9.698507,-23.6712 -12.251767,-34.12049 -8.337187,-34.12049 3.39799,0 23.211007,6.22082 28.917897,9.07954 2.61691,1.31088 10.8245,6.17714 18.23909,10.81393 7.41459,4.63679 20.30982,10.90111 28.6561,13.92069 31.69706,11.46766 43.12284,20.43422 60.99296,47.86524 12.41527,19.05771 22.56579,29.52128 32.9181,33.93335 23.51253,10.02084 47.56254,3.41206 106.61097,-29.29596 33.7796,-18.71116 38.38045,-20.98398 57.09627,-28.20558 17.81124,-6.87254 34.43949,-11.12053 57.88929,-14.78882 25.42969,-3.97803 87.21966,-3.90694 117.27522,0.13496 32.44841,4.36364 36.95793,3.69241 62.92692,-9.36661 26.30448,-13.22778 73.64204,-40.92308 99.72823,-58.34707 59.57087,-39.78966 114.67899,-89.14064 162.4139,-145.4465 41.21605,-48.61654 45.77225,-53.45422 54.38675,-57.747007 9.7867,-4.87697 16.98721,-5.22712 22.11441,-1.0754 9.5096,7.700377 1.3698,30.299957 -25.18489,69.924457 -27.19943,40.58659 -67.33454,85.0663 -109.84665,121.73743 -31.0601,26.79257 -52.86501,42.89614 -106.26253,78.4781 -24.86068,16.56614 -48.39665,32.71459 -52.30218,35.88546 -8.68355,7.05009 -15.89615,14.47487 -15.89615,16.36375 0,0.77279 4.64178,5.74722 10.31506,11.05431 14.97004,14.00371 20.26384,25.65926 25.427,55.98321 2.22052,13.0415 4.7204,26.75988 5.55528,30.48529 5.15611,23.0076 24.27182,59.64214 59.4427,113.91973 46.07329,71.10276 80.0044,148.27522 80.05372,182.07316 0.0182,12.50511 -8.03631,23.31485 -17.37237,23.31485 -7.24848,0 -10.67169,-5.55874 -13.50319,-21.92689 -6.12368,-35.39957 -21.3236,-60.88598 -52.72862,-88.41258 -17.05031,-14.94463 -34.83994,-27.64321 -38.72582,-27.64321 -1.70202,0 -3.2277,1.4691 -3.70591,3.56851 -0.44708,1.96269 -2.3092,10.70556 -4.13806,19.4286 -3.91773,18.68644 -9.98415,32.31725 -18.88121,42.42486 -11.12065,12.63373 -22.32055,13.25073 -27.87962,1.53585 -3.2057,-6.75554 -2.3823,-18.04719 3.55269,-48.71874 2.19431,-11.33995 4.07729,-26.77212 4.18442,-34.29371 0.17387,-12.20635 -0.24245,-14.33632 -3.87487,-19.82528 -5.10718,-7.71747 -7.79681,-9.06061 -28.33931,-14.15193 -31.65693,-7.84595 -52.19161,-18.6558 -76.92137,-40.49285 -25.21851,-22.26864 -38.28628,-27.73211 -63.26308,-26.44951 -14.06201,0.72213 -18.96751,1.84463 -39.82743,9.11347 -13.08456,4.55945 -41.59425,14.34019 -63.35489,21.73498 -48.32385,16.42161 -52.33065,18.88776 -67.4655,41.52421 -8.60639,12.87216 -15.70471,28.29429 -22.71866,49.35956 -10.11331,30.37376 -13.21863,47.54422 -26.45195,146.26282 -5.35456,39.94432 -8.69654,49.43056 -22.5894,64.1202 -5.52208,5.83879 -10.56413,9.38004 -16.53742,11.61493 -10.56094,3.95135 -13.79382,3.97067 -22.24668,0.13291 z"
       id="path1" />
  </g>
</svg>
